<svg width="10" height="9" viewBox="0 0 10 9" fill="none" xmlns="http://www.w3.org/2000/svg">
<path fill-rule="evenodd" clip-rule="evenodd" d="M0.452148 3.5919C0.452148 3.87984 0.675845 4.11327 0.951789 4.11327L6.94748 4.11327C7.77531 4.11327 8.4464 4.81353 8.4464 5.67736L8.4464 7.76282C8.4464 8.05076 8.6701 8.28418 8.94604 8.28418C9.22199 8.28418 9.44568 8.05076 9.44568 7.76282L9.44568 5.67736C9.44568 4.23765 8.3272 3.07054 6.94748 3.07054L0.951789 3.07054C0.675845 3.07054 0.452148 3.30396 0.452148 3.5919Z" fill="#0D0D0D"/>
<path fill-rule="evenodd" clip-rule="evenodd" d="M0.59849 3.22324C0.403368 3.42685 0.403368 3.75696 0.59849 3.96056L2.59705 6.04602C2.79217 6.24962 3.10853 6.24962 3.30365 6.04602C3.49877 5.84241 3.49877 5.5123 3.30365 5.3087L1.65839 3.5919L3.30365 1.8751C3.49877 1.6715 3.49877 1.34139 3.30365 1.13778C3.10853 0.934179 2.79217 0.934179 2.59705 1.13778L0.59849 3.22324Z" fill="#0D0D0D"/>
</svg>
